<?xml version="1.0" encoding="UTF-8" standalone="no"?>
<!-- Created with Inkscape (http://www.inkscape.org/) -->
<svg
   xmlns:dc="http://purl.org/dc/elements/1.1/"
   xmlns:cc="http://creativecommons.org/ns#"
   xmlns:rdf="http://www.w3.org/1999/02/22-rdf-syntax-ns#"
   xmlns:svg="http://www.w3.org/2000/svg"
   xmlns="http://www.w3.org/2000/svg"
   xmlns:xlink="http://www.w3.org/1999/xlink"
   xmlns:sodipodi="http://sodipodi.sourceforge.net/DTD/sodipodi-0.dtd"
   xmlns:inkscape="http://www.inkscape.org/namespaces/inkscape"
   width="744.09448819"
   height="1052.3622047"
   id="svg3301"
   sodipodi:version="0.32"
   inkscape:version="0.46"
   sodipodi:docname="help_button.svg"
   inkscape:output_extension="org.inkscape.output.svg.inkscape"
   inkscape:export-filename="/home/jcosta/Work/iknow/iflow-4/workspace/iFlow/src/main/webapp/Themes/default/images/question.png"
   inkscape:export-xdpi="90"
   inkscape:export-ydpi="90">
  <sodipodi:namedview
     id="base"
     pagecolor="#ffffff"
     bordercolor="#666666"
     borderopacity="1.0"
     gridtolerance="10000"
     guidetolerance="10"
     objecttolerance="10"
     inkscape:pageopacity="0.0"
     inkscape:pageshadow="2"
     inkscape:zoom="3.3281085"
     inkscape:cx="325.10306"
     inkscape:cy="546.44181"
     inkscape:document-units="px"
     inkscape:current-layer="g3407"
     showgrid="false"
     inkscape:window-width="1440"
     inkscape:window-height="827"
     inkscape:window-x="0"
     inkscape:window-y="25"
     showguides="true"
     inkscape:guide-bbox="true" />
  <defs
     id="defs3303">
    <linearGradient
       id="linearGradient3209">
      <stop
         style="stop-color:#f60000;stop-opacity:1;"
         offset="0"
         id="stop3211" />
      <stop
         style="stop-color:#ff2121;stop-opacity:0;"
         offset="1"
         id="stop3213" />
    </linearGradient>
    <linearGradient
       id="linearGradient3235">
      <stop
         id="stop3237"
         offset="0"
         style="stop-color:#0078df;stop-opacity:1;" />
      <stop
         id="stop3239"
         offset="1"
         style="stop-color:#0078df;stop-opacity:0;" />
    </linearGradient>
    <linearGradient
       id="linearGradient3221">
      <stop
         id="stop3223"
         offset="0"
         style="stop-color:#2dbdc0;stop-opacity:1;" />
      <stop
         id="stop3225"
         offset="1"
         style="stop-color:#6688b8;stop-opacity:0;" />
    </linearGradient>
    <inkscape:perspective
       sodipodi:type="inkscape:persp3d"
       inkscape:vp_x="0 : 526.18109 : 1"
       inkscape:vp_y="0 : 1000 : 0"
       inkscape:vp_z="744.09448 : 526.18109 : 1"
       inkscape:persp3d-origin="372.04724 : 350.78739 : 1"
       id="perspective3309" />
    <linearGradient
       gradientUnits="userSpaceOnUse"
       y2="594.61127"
       x2="159.52327"
       y1="560.56232"
       x1="128.04433"
       id="linearGradient3241"
       xlink:href="#linearGradient3235"
       inkscape:collect="always" />
    <linearGradient
       y2="594.61127"
       x2="159.52327"
       y1="560.56232"
       x1="128.04433"
       gradientUnits="userSpaceOnUse"
       id="linearGradient3248"
       xlink:href="#linearGradient3235"
       inkscape:collect="always" />
    <linearGradient
       inkscape:collect="always"
       xlink:href="#linearGradient3235"
       id="linearGradient2421"
       gradientUnits="userSpaceOnUse"
       x1="128.04433"
       y1="560.56232"
       x2="159.52327"
       y2="594.61127" />
    <linearGradient
       inkscape:collect="always"
       xlink:href="#linearGradient3235"
       id="linearGradient2425"
       gradientUnits="userSpaceOnUse"
       x1="128.04433"
       y1="560.56232"
       x2="159.52327"
       y2="594.61127" />
    <linearGradient
       inkscape:collect="always"
       xlink:href="#linearGradient3209"
       id="linearGradient3207"
       gradientUnits="userSpaceOnUse"
       x1="128.04433"
       y1="560.56232"
       x2="159.52327"
       y2="594.61127" />
  </defs>
  <metadata
     id="metadata3306">
    <rdf:RDF>
      <cc:Work
         rdf:about="">
        <dc:format>image/svg+xml</dc:format>
        <dc:type
           rdf:resource="http://purl.org/dc/dcmitype/StillImage" />
      </cc:Work>
    </rdf:RDF>
  </metadata>
  <g
     inkscape:label="Layer 1"
     inkscape:groupmode="layer"
     id="layer1">
    <g
       transform="matrix(1.4545454,0,0,1.4545454,1.3767489,-213.21117)"
       id="g3407">
      <path
         sodipodi:type="arc"
         style="opacity:1;fill:#ffffff;fill-opacity:1;fill-rule:evenodd;stroke:none;stroke-width:0.5;stroke-linecap:round;stroke-linejoin:round;stroke-miterlimit:4;stroke-dasharray:none;stroke-opacity:1"
         id="path2427"
         sodipodi:cx="245.63504"
         sodipodi:cy="504.30307"
         sodipodi:rx="9.4648361"
         sodipodi:ry="9.3146009"
         d="M 255.09988,504.30307 A 9.4648361,9.3146009 0 1 1 236.1702,504.30307 A 9.4648361,9.3146009 0 1 1 255.09988,504.30307 z"
         transform="matrix(1.1320547,0,0,1.1503139,-93.835152,-72.655713)"
         inkscape:export-filename="/home/jcosta/Work/iknow/iflow-4/workspace/iFlow/src/main/webapp/Themes/default/images/question_mark_qm.png"
         inkscape:export-xdpi="90"
         inkscape:export-ydpi="90" />
      <g
         transform="translate(5.5000002,-35.750001)"
         id="g3205">
        <path
           transform="matrix(0.8868158,0,0,0.9753566,22.482408,5.3602658)"
           d="M 83.173434,481.99219 A 8.5294752,7.6897864 0 1 1 66.114484,481.99219 A 8.5294752,7.6897864 0 1 1 83.173434,481.99219 z"
           sodipodi:ry="7.6897864"
           sodipodi:rx="8.5294752"
           sodipodi:cy="481.99219"
           sodipodi:cx="74.643959"
           id="path3216"
           style="opacity:0.55319148;fill:#a79f46;fill-opacity:0.97285066;fill-rule:evenodd;stroke:none;stroke-width:1;stroke-linecap:round;stroke-linejoin:round;stroke-miterlimit:4;stroke-dasharray:none;stroke-opacity:1"
           sodipodi:type="arc"
           inkscape:export-filename="/home/jcosta/Work/iknow/iflow-4/workspace/iFlow/src/main/webapp/Themes/default/images/question.png"
           inkscape:export-xdpi="90"
           inkscape:export-ydpi="90" />
        <path
           id="path2414"
           d="M 95.885974,475.47453 C 95.885974,479.41985 92.656737,482.62185 88.677856,482.62185 C 84.698974,482.62185 81.469738,479.41985 81.469738,475.47453 C 81.469738,471.5292 84.698974,468.32719 88.677856,468.32719 C 92.656737,468.32719 95.885974,471.5292 95.885974,475.47453 z"
           style="opacity:1;fill:#fff411;fill-opacity:1;fill-rule:evenodd;stroke:#858585;stroke-width:0.68473738;stroke-linecap:round;stroke-linejoin:round;stroke-miterlimit:4;stroke-opacity:1"
           inkscape:export-filename="/home/jcosta/Work/iknow/iflow-4/workspace/iFlow/src/main/webapp/Themes/default/images/question.png"
           inkscape:export-xdpi="90"
           inkscape:export-ydpi="90" />
        <g
           id="g3199">
          <text
             inkscape:export-ydpi="90"
             inkscape:export-xdpi="90"
             inkscape:export-filename="/home/jcosta/Work/iknow/iflow-4/workspace/iFlow/src/main/webapp/Themes/default/images/question.png"
             transform="scale(1.0010411,0.99896)"
             id="text3313"
             y="480.71548"
             x="85.322815"
             style="font-size:13.18119526px;font-style:normal;font-variant:normal;font-weight:normal;font-stretch:normal;fill:#5d5d5d;fill-opacity:1;stroke:none;stroke-width:1px;stroke-linecap:butt;stroke-linejoin:miter;stroke-opacity:1;font-family:URW Bookman L;-inkscape-font-specification:URW Bookman L"
             xml:space="preserve"><tspan
               y="480.71548"
               x="85.322815"
               id="tspan3315"
               sodipodi:role="line">?</tspan></text>
          <path
             inkscape:export-ydpi="90"
             inkscape:export-xdpi="90"
             inkscape:export-filename="/home/jcosta/Work/iknow/iflow-4/workspace/iFlow/src/main/webapp/Themes/default/images/question.png"
             style="opacity:0.50212767;fill:#fffeda;fill-opacity:0.6877828;fill-rule:evenodd;stroke:none;stroke-width:1;stroke-linecap:round;stroke-linejoin:round;stroke-miterlimit:4;stroke-opacity:1"
             d="M 88.677854,468.43373 C 85.644495,468.43373 83.058117,470.29703 81.994823,472.92964 C 83.792383,473.58962 86.123851,473.99503 88.677854,473.99503 C 91.231849,473.99503 93.563324,473.58962 95.36089,472.92964 C 94.297181,470.29787 91.710607,468.43374 88.677854,468.43373 z"
             id="path3398" />
        </g>
      </g>
      <rect
         rx="1.3889823"
         ry="1.5121984"
         y="473.37524"
         x="71.393936"
         height="20.834734"
         width="20.834736"
         id="rect2415"
         style="opacity:1;fill:#6688b8;fill-opacity:1;fill-rule:evenodd;stroke:#b6b4f3;stroke-width:1.16526616;stroke-linecap:round;stroke-linejoin:round;stroke-miterlimit:4;stroke-dasharray:none;stroke-opacity:1" />
      <text
         id="text3195"
         y="490.23798"
         x="75.454453"
         style="font-size:19.25px;font-style:normal;font-variant:normal;font-weight:bold;font-stretch:normal;fill:#ececec;fill-opacity:1;stroke:none;stroke-width:1px;stroke-linecap:butt;stroke-linejoin:miter;stroke-opacity:1;font-family:URW Bookman L;-inkscape-font-specification:URW Bookman L Bold"
         xml:space="preserve"><tspan
           y="490.23798"
           x="75.454453"
           id="tspan3197"
           sodipodi:role="line">?</tspan></text>
      <rect
         rx="1.3889823"
         ry="1.5121984"
         y="473.28934"
         x="99.065811"
         height="20.834734"
         width="20.834736"
         id="rect3213"
         style="opacity:1;fill:#6688b8;fill-opacity:1;fill-rule:evenodd;stroke:#b6b4f3;stroke-width:1.16526616;stroke-linecap:round;stroke-linejoin:round;stroke-miterlimit:4;stroke-dasharray:none;stroke-opacity:1" />
      <text
         id="text3215"
         y="490.15204"
         x="103.12633"
         style="font-size:19.25px;font-style:normal;font-variant:normal;font-weight:bold;font-stretch:normal;fill:#ececec;fill-opacity:1;stroke:none;stroke-width:1px;stroke-linecap:butt;stroke-linejoin:miter;stroke-opacity:1;font-family:URW Bookman L;-inkscape-font-specification:URW Bookman L Bold"
         xml:space="preserve"><tspan
           y="490.15204"
           x="103.12633"
           id="tspan3217"
           sodipodi:role="line">?</tspan></text>
      <path
         inkscape:export-ydpi="90"
         inkscape:export-xdpi="90"
         inkscape:export-filename="/home/jcosta/Work/iknow/iflow-4/workspace/iFlow/src/main/webapp/Themes/default/images/question_mark.png"
         transform="matrix(0.6443549,0,0,0.6393983,4.4672754,180.13352)"
         d="M 154.75,569.61218 A 16.125,16.25 0 1 1 122.5,569.61218 A 16.125,16.25 0 1 1 154.75,569.61218 z"
         sodipodi:ry="16.25"
         sodipodi:rx="16.125"
         sodipodi:cy="569.61218"
         sodipodi:cx="138.625"
         id="path3219"
         style="fill:url(#linearGradient3248);fill-opacity:1;fill-rule:evenodd;stroke:#6784ff;stroke-width:1.9000001;stroke-linecap:round;stroke-linejoin:round;stroke-miterlimit:4;stroke-dasharray:none;stroke-opacity:1"
         sodipodi:type="arc" />
      <path
         inkscape:export-ydpi="90"
         inkscape:export-xdpi="90"
         inkscape:export-filename="/home/jcosta/Work/iknow/iflow-4/workspace/iFlow/src/main/webapp/images/question_mark.png"
         transform="matrix(0.4689923,0,0,0.4653847,0.3089706,269.72281)"
         d="M 154.75,569.61218 A 16.125,16.25 0 1 1 122.5,569.61218 A 16.125,16.25 0 1 1 154.75,569.61218 z"
         sodipodi:ry="16.25"
         sodipodi:rx="16.125"
         sodipodi:cy="569.61218"
         sodipodi:cx="138.625"
         id="path2479"
         style="fill:#aad7ff;fill-opacity:0.67058824;fill-rule:evenodd;stroke:none;stroke-width:1.9000001;stroke-linecap:round;stroke-linejoin:round;stroke-miterlimit:4;stroke-dasharray:none;stroke-opacity:1"
         sodipodi:type="arc" />
      <text
         inkscape:export-ydpi="90"
         inkscape:export-xdpi="90"
         inkscape:export-filename="/home/jcosta/Work/iknow/iflow-4/workspace/iFlow/src/main/webapp/Themes/default/images/question_mark.png"
         id="text3229"
         y="551.30713"
         x="90.64888"
         style="font-size:18.33333397px;font-style:normal;font-variant:normal;font-weight:bold;font-stretch:normal;fill:#ffffff;fill-opacity:1;stroke:none;stroke-width:1px;stroke-linecap:butt;stroke-linejoin:miter;stroke-opacity:1;font-family:Waree;-inkscape-font-specification:Waree Bold"
         xml:space="preserve"><tspan
           y="551.30713"
           x="90.64888"
           id="tspan3231"
           sodipodi:role="line">i</tspan></text>
      <path
         inkscape:export-ydpi="90"
         inkscape:export-xdpi="90"
         inkscape:export-filename="/home/jcosta/Work/iknow/iflow-4/workspace/iFlow/src/main/webapp/Themes/default/images/question_mark_qm.png"
         transform="matrix(0.4832662,0,0,0.4795487,87.435721,275.17489)"
         d="M 154.75,569.61218 A 16.125,16.25 0 1 1 122.5,569.61218 A 16.125,16.25 0 1 1 154.75,569.61218 z"
         sodipodi:ry="16.25"
         sodipodi:rx="16.125"
         sodipodi:cy="569.61218"
         sodipodi:cx="138.625"
         id="path2415"
         style="fill:url(#linearGradient2421);fill-opacity:1;fill-rule:evenodd;stroke:#6784ff;stroke-width:1.9000001;stroke-linecap:round;stroke-linejoin:round;stroke-miterlimit:4;stroke-dasharray:none;stroke-opacity:1"
         sodipodi:type="arc" />
      <text
         inkscape:export-ydpi="90"
         inkscape:export-xdpi="90"
         inkscape:export-filename="/home/jcosta/Work/iknow/iflow-4/workspace/iFlow/src/main/webapp/Themes/default/images/question_mark_qm.png"
         id="text2417"
         y="553.55511"
         x="150.83249"
         style="font-size:13.75px;font-style:normal;font-variant:normal;font-weight:bold;font-stretch:normal;fill:#ffffff;fill-opacity:1;stroke:none;stroke-width:1px;stroke-linecap:butt;stroke-linejoin:miter;stroke-opacity:1;font-family:Waree;-inkscape-font-specification:Waree Bold"
         xml:space="preserve"><tspan
           y="553.55511"
           x="150.83249"
           id="tspan2419"
           sodipodi:role="line">?</tspan></text>
      <path
         inkscape:export-ydpi="90"
         inkscape:export-xdpi="90"
         inkscape:export-filename="/home/jcosta/Work/iknow/iflow-4/workspace/iFlow/src/main/webapp/Themes/default/images/question_mark_qm.png"
         transform="matrix(0.6443548,0,0,0.6393983,94.884473,143.27105)"
         d="M 154.75,569.61218 A 16.125,16.25 0 1 1 122.5,569.61218 A 16.125,16.25 0 1 1 154.75,569.61218 z"
         sodipodi:ry="16.25"
         sodipodi:rx="16.125"
         sodipodi:cy="569.61218"
         sodipodi:cx="138.625"
         id="path2419"
         style="fill:url(#linearGradient2425);fill-opacity:1;fill-rule:evenodd;stroke:#6784ff;stroke-width:1.9000001;stroke-linecap:round;stroke-linejoin:round;stroke-miterlimit:4;stroke-dasharray:none;stroke-opacity:1"
         sodipodi:type="arc" />
      <text
         inkscape:export-ydpi="90"
         inkscape:export-xdpi="90"
         inkscape:export-filename="/home/jcosta/Work/iknow/iflow-4/workspace/iFlow/src/main/webapp/Themes/default/images/question_mark_qm.png"
         id="text2421"
         y="514.4447"
         x="179.41351"
         style="font-size:18.33333397px;font-style:normal;font-variant:normal;font-weight:bold;font-stretch:normal;fill:#ffffff;fill-opacity:1;stroke:none;stroke-width:1px;stroke-linecap:butt;stroke-linejoin:miter;stroke-opacity:1;font-family:Waree;-inkscape-font-specification:Waree Bold"
         xml:space="preserve"><tspan
           y="514.4447"
           x="179.41351"
           id="tspan2423"
           sodipodi:role="line">?</tspan></text>
      <path
         inkscape:export-ydpi="90"
         inkscape:export-xdpi="90"
         inkscape:export-filename="/home/jcosta/Work/iknow/iflow-4/workspace/iFlow/src/main/webapp/Themes/default/images/question_mark_qm.png"
         transform="matrix(0.8490411,0,0,0.8627353,25.808549,87.935858)"
         d="M 255.09988,504.30307 A 9.4648361,9.3146009 0 1 1 236.1702,504.30307 A 9.4648361,9.3146009 0 1 1 255.09988,504.30307 z"
         sodipodi:ry="9.3146009"
         sodipodi:rx="9.4648361"
         sodipodi:cy="504.30307"
         sodipodi:cx="245.63504"
         id="path3199"
         style="opacity:1;fill:#ffffff;fill-opacity:1;fill-rule:evenodd;stroke:none;stroke-width:0.5;stroke-linecap:round;stroke-linejoin:round;stroke-miterlimit:4;stroke-dasharray:none;stroke-opacity:1"
         sodipodi:type="arc" />
      <path
         sodipodi:type="arc"
         style="fill:url(#linearGradient3207);fill-opacity:1;fill-rule:evenodd;stroke:#ff3434;stroke-width:1.9000001;stroke-linecap:round;stroke-linejoin:round;stroke-miterlimit:4;stroke-dasharray:none;stroke-opacity:1"
         id="path3201"
         sodipodi:cx="138.625"
         sodipodi:cy="569.61218"
         sodipodi:rx="16.125"
         sodipodi:ry="16.25"
         d="M 154.75,569.61218 A 16.125,16.25 0 1 1 122.5,569.61218 A 16.125,16.25 0 1 1 154.75,569.61218 z"
         transform="matrix(0.4832662,0,0,0.4795487,167.34828,249.88092)"
         inkscape:export-filename="/home/jcosta/Work/iknow/iflow-4/workspace/iFlow/src/main/webapp/Themes/default/images/question_mark_qm.png"
         inkscape:export-xdpi="90"
         inkscape:export-ydpi="90" />
      <text
         xml:space="preserve"
         style="font-size:13.75px;font-style:normal;font-variant:normal;font-weight:bold;font-stretch:normal;fill:#ffffff;fill-opacity:1;stroke:none;stroke-width:1px;stroke-linecap:butt;stroke-linejoin:miter;stroke-opacity:1;font-family:Waree;-inkscape-font-specification:Waree Bold"
         x="230.74506"
         y="528.26111"
         id="text3203"
         inkscape:export-filename="/home/jcosta/Work/iknow/iflow-4/workspace/iFlow/src/main/webapp/Themes/default/images/question_mark_qm.png"
         inkscape:export-xdpi="90"
         inkscape:export-ydpi="90"><tspan
           sodipodi:role="line"
           id="tspan3205"
           x="230.74506"
           y="528.26111">?</tspan></text>
      <path
         style="opacity:1;fill:#f80606;fill-opacity:1;fill-rule:evenodd;stroke:none;stroke-width:2.41859269;stroke-linecap:round;stroke-linejoin:round;marker:none;marker-start:none;marker-mid:none;marker-end:none;stroke-miterlimit:4;stroke-dasharray:none;stroke-dashoffset:0;stroke-opacity:1;visibility:visible;display:inline;overflow:visible;enable-background:accumulate"
         id="path3215"
         d="M 156.26012,471.78586 C 157.10095,472.28515 157.96611,472.73931 158.82263,473.2095 C 159.97203,473.82863 161.13262,474.42666 162.29042,475.02992 C 162.98591,475.38977 163.68291,475.74677 164.37711,476.10909 C 164.82667,476.3419 165.27443,476.57817 165.72251,476.81379 C 166.15972,477.04679 166.59708,477.27951 167.03412,477.51283 C 167.49584,477.75547 167.95604,478.001 168.41569,478.24756 C 168.98962,478.56245 169.56982,478.86558 170.14902,479.17057 C 170.7099,479.46723 171.26997,479.76542 171.8303,480.0631 C 172.34024,480.33726 172.85481,480.60264 173.36916,480.86845 C 173.69745,481.03784 174.02451,481.20957 174.35121,481.38199 C 174.64198,481.53565 174.93249,481.6898 175.22303,481.8439 C 175.57642,481.99636 175.82781,482.32381 176.12654,482.5723 C 176.34572,482.85717 176.57877,483.12016 176.83667,483.3457 L 173.79065,484.82617 C 173.54762,484.58303 173.33074,484.30104 173.08674,484.05952 C 172.79539,483.8062 172.52056,483.52468 172.16512,483.38315 C 171.87469,483.22919 171.58421,483.07528 171.294,482.92088 C 170.97064,482.7486 170.64765,482.57565 170.32589,482.40034 C 169.82123,482.12577 169.31675,481.85082 168.80761,481.58463 C 168.24642,481.28763 167.68496,480.99113 167.12432,480.69312 C 166.54546,480.384 165.96752,480.07311 165.38341,479.7739 C 164.92063,479.53133 164.45839,479.28776 163.99769,479.04128 C 163.55802,478.80972 163.11868,478.57757 162.6792,478.34571 C 162.23595,478.10869 161.79235,477.87235 161.3506,477.63253 C 160.67126,477.26655 159.99477,476.89523 159.31676,476.52678 C 158.17458,475.91043 157.03516,475.28884 155.8845,474.68845 C 154.99075,474.23066 154.1051,473.75734 153.19649,473.328 L 156.26012,471.78586 z"
         inkscape:export-filename="/home/jcosta/Work/iknow/iflow-4/workspace/iFlow/src/main/webapp/Themes/default/images/rightarrow.png"
         inkscape:export-xdpi="90"
         inkscape:export-ydpi="90" />
      <path
         d="M 166.86392,486.18745 C 167.3613,485.96628 167.90713,485.85104 168.46458,485.76236 C 169.3131,485.63606 170.1903,485.62937 171.05961,485.59272 C 171.62007,485.57825 172.17285,485.52532 172.73083,485.50034 C 173.1141,485.46752 173.49427,485.42979 173.86922,485.36742 C 174.33933,485.30988 174.80702,485.2483 175.2823,485.21045 C 175.7201,485.18332 176.12401,485.05916 176.51257,484.91325 C 176.90388,484.75007 177.12638,484.5717 177.11034,484.14399 C 176.60888,482.83842 175.52709,481.68067 174.50251,480.61838 C 173.79522,479.92444 173.08295,479.23721 172.3325,478.58167 C 171.64507,477.99481 171.01696,477.35505 170.36281,476.73891 C 169.95764,476.3014 169.55982,475.86682 169.0818,475.49233 C 168.69167,475.22081 168.31941,474.92717 167.95455,474.62633 C 167.59904,474.37803 167.36324,474.03201 167.04485,473.74879 C 166.8793,473.55942 166.72052,473.37339 166.56022,473.1819 L 167.73726,475.40121 C 167.89447,475.59276 168.07429,475.77097 168.24934,475.94973 C 168.54647,476.2484 168.82075,476.56598 169.1742,476.81385 C 169.54188,477.11114 169.92538,477.39047 170.30089,477.67897 C 170.75103,478.06297 171.13024,478.50152 171.55055,478.91119 C 172.19301,479.52814 172.84014,480.14092 173.51673,480.72722 C 174.25971,481.39174 174.97512,482.08105 175.67088,482.78634 C 175.91662,483.0544 175.97866,483.11773 176.20052,483.37421 C 176.27154,483.45632 176.47164,483.71029 176.41099,483.62222 C 174.16928,480.36647 174.93524,481.48696 175.37914,482.2127 C 175.54953,482.58091 175.3667,482.69039 175.03926,482.8328 C 174.67013,482.96973 174.28626,483.08249 173.87056,483.10518 C 173.38995,483.14723 172.91671,483.21507 172.43838,483.26586 C 172.07036,483.3208 171.6964,483.35167 171.3241,483.39158 C 170.77351,483.43161 170.22368,483.47418 169.67134,483.50687 C 168.79347,483.55449 167.91039,483.57878 167.0444,483.67872 C 166.46709,483.77548 165.90426,483.90393 165.37255,484.105 L 166.86392,486.18745 z"
         id="path3228"
         style="opacity:1;fill:#f80606;fill-opacity:1;fill-rule:evenodd;stroke:none;stroke-width:1.31011403;stroke-linecap:round;stroke-linejoin:round;marker:none;marker-start:none;marker-mid:none;marker-end:none;stroke-miterlimit:4;stroke-dasharray:none;stroke-dashoffset:0;stroke-opacity:1;visibility:visible;display:inline;overflow:visible;enable-background:accumulate"
         inkscape:export-filename="/home/jcosta/Work/iknow/iflow-4/workspace/iFlow/src/main/webapp/Themes/default/images/rightarrow.png"
         inkscape:export-xdpi="90"
         inkscape:export-ydpi="90" />
    </g>
  </g>
</svg>
