<?xml version="1.0" encoding="UTF-8" standalone="no"?>
<!-- Created with Inkscape (http://www.inkscape.org/) -->
<svg
   xmlns:dc="http://purl.org/dc/elements/1.1/"
   xmlns:cc="http://creativecommons.org/ns#"
   xmlns:rdf="http://www.w3.org/1999/02/22-rdf-syntax-ns#"
   xmlns:svg="http://www.w3.org/2000/svg"
   xmlns="http://www.w3.org/2000/svg"
   xmlns:sodipodi="http://sodipodi.sourceforge.net/DTD/sodipodi-0.dtd"
   xmlns:inkscape="http://www.inkscape.org/namespaces/inkscape"
   width="744.09448819"
   height="1052.3622047"
   id="svg2"
   sodipodi:version="0.32"
   inkscape:version="0.46"
   sodipodi:docname="tutbalao2.svg"
   inkscape:output_extension="org.inkscape.output.svg.inkscape">
  <sodipodi:namedview
     id="base"
     pagecolor="#ffffff"
     bordercolor="#666666"
     borderopacity="1.0"
     gridtolerance="10000"
     guidetolerance="10"
     objecttolerance="10"
     inkscape:pageopacity="0.0"
     inkscape:pageshadow="2"
     inkscape:zoom="1"
     inkscape:cx="508.2974"
     inkscape:cy="807.22005"
     inkscape:document-units="px"
     inkscape:current-layer="layer1"
     showgrid="false"
     inkscape:window-width="1440"
     inkscape:window-height="827"
     inkscape:window-x="0"
     inkscape:window-y="25" />
  <defs
     id="defs4">
    <inkscape:perspective
       sodipodi:type="inkscape:persp3d"
       inkscape:vp_x="0 : 526.18109 : 1"
       inkscape:vp_y="0 : 1000 : 0"
       inkscape:vp_z="744.09448 : 526.18109 : 1"
       inkscape:persp3d-origin="372.04724 : 350.78739 : 1"
       id="perspective10" />
  </defs>
  <metadata
     id="metadata7">
    <rdf:RDF>
      <cc:Work
         rdf:about="">
        <dc:format>image/svg+xml</dc:format>
        <dc:type
           rdf:resource="http://purl.org/dc/dcmitype/StillImage" />
      </cc:Work>
    </rdf:RDF>
  </metadata>
  <g
     inkscape:label="Layer 1"
     inkscape:groupmode="layer"
     id="layer1">
    <path
       inkscape:export-ydpi="90"
       inkscape:export-xdpi="90"
       inkscape:export-filename="/home/jcosta/Work/iknow/iflow-4/workspace/iFlow/src/main/webapp/images/tutbalao.png"
       sodipodi:nodetypes="ccccccccccc"
       id="rect2383"
       d="M 169.02099,410.37427 L 303.48748,410.37427 C 307.34905,410.37427 310.45781,412.22438 310.45781,414.52249 L 310.45781,419.82314 C 331.48501,424.02074 331.11986,421.84786 310.45781,427.52696 L 310.45781,482.69475 C 310.45781,484.99286 307.34905,486.84297 303.48748,486.84297 L 169.02099,486.84297 C 165.15943,486.84297 162.05066,484.99286 162.05066,482.69475 L 162.05066,414.52249 C 162.05066,412.22438 165.15943,410.37427 169.02099,410.37427 z"
       style="fill:#000000;fill-opacity:1;fill-rule:evenodd;stroke:none;stroke-width:0.95908546;stroke-linecap:round;stroke-linejoin:round;stroke-miterlimit:4;stroke-opacity:1" />
    <g
       transform="matrix(1.0042808,0,0,0.5939478,-44.869979,183.50565)"
       inkscape:export-ydpi="90"
       inkscape:export-xdpi="90"
       inkscape:export-filename="/home/jcosta/Work/iknow/iflow-4/workspace/iFlow/src/main/webapp/images/tutbalao.png"
       id="g3221"
       style="fill:#000000;fill-opacity:1">
      <path
         id="path3223"
         d="M 212.875,384.1875 C 206.38249,384.76076 208.93761,393.44223 208.5625,397.65625 C 208.75949,433.51502 208.17477,469.57463 208.84375,505.3125 C 211.53344,510.89476 219.52798,507.11352 224.25,508.21875 C 265.82506,508.02526 307.54326,508.60178 349.03125,507.9375 C 354.62922,505.30915 350.88114,497.23761 351.96875,492.5 C 352.23287,464.9295 351.44066,437.14103 352.36458,409.70668 C 355.36506,406.39252 360.66679,405.5969 364.65625,403.4375 C 360.11919,401.1664 350.50304,401.96551 351.96875,394.625 C 352.59662,390.8846 352.57817,383.9866 347.28125,384.15625 C 302.47961,384.17712 257.67447,384.11453 212.875,384.1875 z"
         style="opacity:0.09090899;fill:#000000;fill-opacity:1;fill-rule:evenodd;stroke:none;stroke-width:0.95908546;stroke-linecap:round;stroke-linejoin:round;stroke-miterlimit:4;stroke-opacity:1" />
      <path
         id="path3227"
         d="M 212.8125,383.6875 C 206.90716,383.96616 207.71177,391.61526 208.0625,395.65625 C 208.23741,432.15805 207.7181,468.88203 208.3125,505.25 C 210.74295,511.48274 219.30861,507.67516 224.1875,508.71875 C 265.79113,508.54576 307.47849,509.06056 349.03125,508.46875 C 355.22895,505.95074 351.42346,497.46337 352.46875,492.53125 C 352.74663,464.95648 351.91306,437.13914 352.8854,409.71594 C 356.53535,406.67088 361.80808,405.53908 366.15625,403.34375 C 361.85403,401.20387 355.16956,401.75012 352.46875,397.625 C 352.98804,392.8186 353.98848,382.75384 346.3125,383.65625 C 301.81325,383.67715 257.30804,383.6145 212.8125,383.6875 z"
         style="opacity:0.09090899;fill:#000000;fill-opacity:1;fill-rule:evenodd;stroke:none;stroke-width:0.95908546;stroke-linecap:round;stroke-linejoin:round;stroke-miterlimit:4;stroke-opacity:1" />
      <path
         id="path3231"
         d="M 212.78125,383.1875 C 206.59054,383.44621 207.05868,391.37154 207.5625,395.65625 C 207.73747,432.21609 207.21803,468.8747 207.8125,505.375 C 210.29282,511.91132 219.04274,508.31854 224.15625,509.21875 C 265.76292,509.06948 307.43107,509.51503 349,509 C 355.6783,506.66416 352.09147,497.7233 352.96875,492.59375 C 352.96875,465.27083 352.96875,437.94792 352.96875,410.625 C 356.50724,406.71275 363.14433,405.86596 367.40625,403.25 C 362.87494,401.0539 356.2847,401.3261 352.96875,397.625 C 352.85358,392.95883 354.85587,384.26649 348.1875,383.1875 C 303.05732,383.1354 257.91175,383.13539 212.78125,383.1875 z"
         style="opacity:0.09090899;fill:#000000;fill-opacity:1;fill-rule:evenodd;stroke:none;stroke-width:0.95908546;stroke-linecap:round;stroke-linejoin:round;stroke-miterlimit:4;stroke-opacity:1" />
      <path
         id="path3235"
         d="M 212.75,382.6875 C 206.81841,382.8482 206.19841,390.22731 207.0625,394.65625 C 207.25814,431.60075 206.67656,468.65041 207.34375,505.53125 C 210.00769,512.63542 219.55385,508.74633 225.125,509.71875 C 266.51011,509.52574 307.97793,510.10115 349.3125,509.4375 C 356.37981,506.68649 352.49409,497.24927 353.46875,491.625 C 353.46875,464.625 353.46875,437.625 353.46875,410.625 C 357.63666,407.026 363.86383,406.02601 368.71875,403.21875 C 363.8505,400.95499 357.62943,400.83237 353.46875,397.625 C 353.50518,392.73904 355.1891,383.84726 348.40625,382.75 C 303.20314,382.55144 257.96178,382.67753 212.75,382.6875 z"
         style="opacity:0.09090899;fill:#000000;fill-opacity:1;fill-rule:evenodd;stroke:none;stroke-width:0.95908546;stroke-linecap:round;stroke-linejoin:round;stroke-miterlimit:4;stroke-opacity:1" />
      <path
         id="path3239"
         d="M 212.6875,382.1875 C 208.24955,382.23435 205.67679,387.10644 206.5625,391.15625 C 206.62553,429.10054 206.43679,467.15583 206.65625,505.03125 C 207.47508,509.32583 212.16807,510.90587 216.0625,510.21875 C 260.21723,510.15607 304.38408,510.34399 348.53125,510.125 C 352.64262,509.61636 354.69027,505.03277 353.96875,501.1875 C 353.96875,471 353.96875,440.8125 353.96875,410.625 C 358.6004,407.4107 364.81318,406.2708 369.5625,403.15625 C 364.74279,400.69669 358.74995,400.20859 354.01682,397.69055 C 353.34401,393.07439 355.69541,386.78585 351.375,383.46875 C 347.52212,380.87839 342.37597,382.70762 337.96875,382.15625 C 296.20882,382.17711 254.44507,382.11455 212.6875,382.1875 z"
         style="opacity:0.09090899;fill:#000000;fill-opacity:1;fill-rule:evenodd;stroke:none;stroke-width:0.95908546;stroke-linecap:round;stroke-linejoin:round;stroke-miterlimit:4;stroke-opacity:1" />
      <path
         style="opacity:0.09090899;fill:#000000;fill-opacity:1;fill-rule:evenodd;stroke:none;stroke-width:0.95908546;stroke-linecap:round;stroke-linejoin:round;stroke-miterlimit:4;stroke-opacity:1"
         d="M 213.02099,381.66646 L 347.48748,381.66646 C 351.34905,381.66646 354.45781,384.78851 354.45781,388.66657 L 354.45781,397.61142 C 375.48501,404.69487 375.11986,401.02814 354.45781,410.61162 L 354.45781,503.70727 C 354.45781,507.58533 351.34905,510.70738 347.48748,510.70738 L 213.02099,510.70738 C 209.15943,510.70738 206.05066,507.58533 206.05066,503.70727 L 206.05066,388.66657 C 206.05066,384.78851 209.15943,381.66646 213.02099,381.66646 z"
         id="path3243"
         sodipodi:nodetypes="ccccccccccc"
         inkscape:export-filename="/home/jcosta/Work/iknow/iflow-4/workspace/iFlow/src/main/webapp/images/tutbalao.png"
         inkscape:export-xdpi="90"
         inkscape:export-ydpi="90" />
      <path
         id="path3245"
         d="M 212.65625,381.1875 C 207.65762,381.24367 204.63964,386.55392 205.5625,391.15625 C 205.60443,429.06158 205.47881,466.9742 205.625,504.875 C 206.23724,509.48792 211.16135,512.01516 215.53125,511.21875 C 259.90487,511.1561 304.28953,511.34395 348.65625,511.125 C 353.28175,510.52387 355.74833,505.54801 354.96875,501.21875 C 354.96875,471.125 354.96875,441.03125 354.96875,410.9375 C 359.90477,408.33578 365.73948,406.934 370.375,403.75 C 371.1668,401.48006 367.23599,401.37607 365.89626,400.66826 C 362.24023,399.58325 358.59971,398.44726 354.96875,397.28125 C 354.57615,392.34411 356.5892,385.63584 351.625,382.40625 C 347.24064,379.90352 341.81414,381.7019 337,381.15625 C 295.55257,381.17711 254.10132,381.11455 212.65625,381.1875 z"
         style="opacity:0.09090899;fill:#000000;fill-opacity:1;fill-rule:evenodd;stroke:none;stroke-width:0.95908546;stroke-linecap:round;stroke-linejoin:round;stroke-miterlimit:4;stroke-opacity:1" />
      <path
         id="path3249"
         d="M 212.65625,380.6875 C 206.18669,380.75794 203.77746,388.26504 205.0625,393.65625 C 205.23594,431.01142 204.72005,468.43838 205.3125,505.75 C 207.1156,513.15707 216.3131,511.94286 222.03125,511.71875 C 264.50303,511.54795 307.03216,512.05764 349.46875,511.46875 C 356.90655,509.65573 355.70586,500.45768 355.46875,494.71875 C 355.46875,466.90625 355.46875,439.09375 355.46875,411.28125 C 360.29749,408.21558 367.13316,407.64341 371.03125,403.5 C 370.12971,399.4988 363.67902,400.35216 360.6717,398.54172 C 354.18442,398.60864 355.33381,393.16112 355.4375,388.3125 C 355.38177,381.82948 347.91488,379.39602 342.5,380.65625 C 299.21934,380.67715 255.93402,380.61449 212.65625,380.6875 z"
         style="opacity:0.09090899;fill:#000000;fill-opacity:1;fill-rule:evenodd;stroke:none;stroke-width:0.95908546;stroke-linecap:round;stroke-linejoin:round;stroke-miterlimit:4;stroke-opacity:1" />
      <path
         id="path3253"
         d="M 212.65625,380.1875 C 205.92932,380.24488 203.21659,387.98015 204.5625,393.65625 C 204.75812,431.06277 204.17658,468.54644 204.84375,505.90625 C 206.69127,513.52993 216.08522,512.53909 222.03125,512.21875 C 264.55442,512.02623 307.14016,512.60051 349.625,511.9375 C 356.80427,510.2558 356.52106,501.46188 355.96875,495.71875 C 355.96875,467.66667 355.96875,439.61458 355.96875,411.5625 C 360.78423,408.60544 367.7727,408.06727 371.53125,403.65625 C 371.09141,399.01654 363.89008,400.01979 360.8271,398.07566 C 354.51426,398.12655 356.00758,392.49542 355.9375,387.9375 C 355.5515,381.36481 348.09772,378.92663 342.5,380.15625 C 299.21941,380.17715 255.93359,380.1145 212.65625,380.1875 z"
         style="opacity:0.09090899;fill:#000000;fill-opacity:1;fill-rule:evenodd;stroke:none;stroke-width:0.95908546;stroke-linecap:round;stroke-linejoin:round;stroke-miterlimit:4;stroke-opacity:1" />
      <path
         id="path3257"
         d="M 212.65625,379.6875 C 205.65794,379.76967 202.66167,387.67505 204.0625,393.65625 C 204.25967,431.09433 203.67448,468.60658 204.34375,506 C 205.89085,512.85165 214.26364,513.57098 220.03125,512.71875 C 263.26274,512.5252 306.55645,513.10188 349.75,512.4375 C 357.16901,510.64945 357.10217,501.72651 356.46875,495.71875 C 356.46875,467.78125 356.46875,439.84375 356.46875,411.90625 C 361.28393,408.85185 368.44785,408.49757 372,403.78125 C 371.91631,398.69397 364.28123,399.52843 360.95295,397.60422 C 354.87903,397.72414 356.61597,392.15736 356.4375,387.9375 C 356.0721,381.12961 348.37471,378.33027 342.5,379.65625 C 299.2195,379.67715 255.93304,379.6145 212.65625,379.6875 z"
         style="opacity:0.09090899;fill:#000000;fill-opacity:1;fill-rule:evenodd;stroke:none;stroke-width:0.95908546;stroke-linecap:round;stroke-linejoin:round;stroke-miterlimit:4;stroke-opacity:1" />
      <path
         id="path3261"
         d="M 212.4375,379.1875 C 205.28402,379.4118 202.13535,387.4724 203.5625,393.65625 C 203.78054,431.15497 203.13275,468.74228 203.875,506.1875 C 205.64452,513.75078 214.82951,513.94243 221.03125,513.21875 C 263.969,513.00442 306.98522,513.64348 349.875,512.90625 C 357.53587,511.12882 357.68776,501.95151 356.96875,495.71875 C 356.96875,467.88542 356.96875,440.05208 356.96875,412.21875 C 361.79661,409.08109 369.23459,408.89579 372.5,403.875 C 372.64107,398.35979 364.57999,399.00245 361.1092,397.13547 C 355.01858,397.33676 357.36841,391.49353 356.90625,387.5 C 356.19252,380.15472 347.71451,377.83013 341.5,379.15625 C 298.47961,379.17717 255.45572,379.11446 212.4375,379.1875 z"
         style="opacity:0.09090899;fill:#000000;fill-opacity:1;fill-rule:evenodd;stroke:none;stroke-width:0.95908546;stroke-linecap:round;stroke-linejoin:round;stroke-miterlimit:4;stroke-opacity:1" />
    </g>
    <path
       inkscape:export-ydpi="90"
       inkscape:export-xdpi="90"
       inkscape:export-filename="/home/jcosta/Work/iknow/iflow-4/workspace/iFlow/src/main/webapp/images/tutbalao.png"
       sodipodi:nodetypes="ccccccccccc"
       id="path2411"
       d="M 219.79453,566.03391 L 354.26102,566.03391 C 358.12259,566.03391 361.23135,569.15596 361.23135,573.03402 L 361.23135,581.97887 C 382.25855,589.06232 381.8934,585.39559 361.23135,594.97907 L 361.23135,688.07472 C 361.23135,691.95278 358.12259,695.07483 354.26102,695.07483 L 219.79453,695.07483 C 215.93297,695.07483 212.8242,691.95278 212.8242,688.07472 L 212.8242,573.03402 C 212.8242,569.15596 215.93297,566.03391 219.79453,566.03391 z"
       style="fill:#cbe3e2;fill-opacity:1;fill-rule:evenodd;stroke:none;stroke-width:0.95908546;stroke-linecap:round;stroke-linejoin:round;stroke-miterlimit:4;stroke-opacity:1" />
    <g
       transform="matrix(1.0042808,0,0,1.0022869,5.903563,183.19312)"
       inkscape:export-ydpi="90"
       inkscape:export-xdpi="90"
       inkscape:export-filename="/home/jcosta/Work/iknow/iflow-4/workspace/iFlow/src/main/webapp/images/tutbalao.png"
       id="g2413">
      <path
         id="path2415"
         d="M 212.875,384.1875 C 206.38249,384.76076 208.93761,393.44223 208.5625,397.65625 C 208.75949,433.51502 208.17477,469.57463 208.84375,505.3125 C 211.53344,510.89476 219.52798,507.11352 224.25,508.21875 C 265.82506,508.02526 307.54326,508.60178 349.03125,507.9375 C 354.62922,505.30915 350.88114,497.23761 351.96875,492.5 C 352.23287,464.9295 351.44066,437.14103 352.36458,409.70668 C 355.36506,406.39252 360.66679,405.5969 364.65625,403.4375 C 360.11919,401.1664 350.50304,401.96551 351.96875,394.625 C 352.59662,390.8846 352.57817,383.9866 347.28125,384.15625 C 302.47961,384.17712 257.67447,384.11453 212.875,384.1875 z"
         style="opacity:0.09090899;fill:#cbe300;fill-opacity:1;fill-rule:evenodd;stroke:none;stroke-width:0.95908546;stroke-linecap:round;stroke-linejoin:round;stroke-miterlimit:4;stroke-opacity:1" />
      <path
         id="path2417"
         d="M 212.8125,383.6875 C 206.90716,383.96616 207.71177,391.61526 208.0625,395.65625 C 208.23741,432.15805 207.7181,468.88203 208.3125,505.25 C 210.74295,511.48274 219.30861,507.67516 224.1875,508.71875 C 265.79113,508.54576 307.47849,509.06056 349.03125,508.46875 C 355.22895,505.95074 351.42346,497.46337 352.46875,492.53125 C 352.74663,464.95648 351.91306,437.13914 352.8854,409.71594 C 356.53535,406.67088 361.80808,405.53908 366.15625,403.34375 C 361.85403,401.20387 355.16956,401.75012 352.46875,397.625 C 352.98804,392.8186 353.98848,382.75384 346.3125,383.65625 C 301.81325,383.67715 257.30804,383.6145 212.8125,383.6875 z"
         style="opacity:0.09090899;fill:#cbe300;fill-opacity:1;fill-rule:evenodd;stroke:none;stroke-width:0.95908546;stroke-linecap:round;stroke-linejoin:round;stroke-miterlimit:4;stroke-opacity:1" />
      <path
         id="path2419"
         d="M 212.78125,383.1875 C 206.59054,383.44621 207.05868,391.37154 207.5625,395.65625 C 207.73747,432.21609 207.21803,468.8747 207.8125,505.375 C 210.29282,511.91132 219.04274,508.31854 224.15625,509.21875 C 265.76292,509.06948 307.43107,509.51503 349,509 C 355.6783,506.66416 352.09147,497.7233 352.96875,492.59375 C 352.96875,465.27083 352.96875,437.94792 352.96875,410.625 C 356.50724,406.71275 363.14433,405.86596 367.40625,403.25 C 362.87494,401.0539 356.2847,401.3261 352.96875,397.625 C 352.85358,392.95883 354.85587,384.26649 348.1875,383.1875 C 303.05732,383.1354 257.91175,383.13539 212.78125,383.1875 z"
         style="opacity:0.09090899;fill:#cbe300;fill-opacity:1;fill-rule:evenodd;stroke:none;stroke-width:0.95908546;stroke-linecap:round;stroke-linejoin:round;stroke-miterlimit:4;stroke-opacity:1" />
      <path
         id="path2421"
         d="M 212.75,382.6875 C 206.81841,382.8482 206.19841,390.22731 207.0625,394.65625 C 207.25814,431.60075 206.67656,468.65041 207.34375,505.53125 C 210.00769,512.63542 219.55385,508.74633 225.125,509.71875 C 266.51011,509.52574 307.97793,510.10115 349.3125,509.4375 C 356.37981,506.68649 352.49409,497.24927 353.46875,491.625 C 353.46875,464.625 353.46875,437.625 353.46875,410.625 C 357.63666,407.026 363.86383,406.02601 368.71875,403.21875 C 363.8505,400.95499 357.62943,400.83237 353.46875,397.625 C 353.50518,392.73904 355.1891,383.84726 348.40625,382.75 C 303.20314,382.55144 257.96178,382.67753 212.75,382.6875 z"
         style="opacity:0.09090899;fill:#cbe300;fill-opacity:1;fill-rule:evenodd;stroke:none;stroke-width:0.95908546;stroke-linecap:round;stroke-linejoin:round;stroke-miterlimit:4;stroke-opacity:1" />
      <path
         id="path2423"
         d="M 212.6875,382.1875 C 208.24955,382.23435 205.67679,387.10644 206.5625,391.15625 C 206.62553,429.10054 206.43679,467.15583 206.65625,505.03125 C 207.47508,509.32583 212.16807,510.90587 216.0625,510.21875 C 260.21723,510.15607 304.38408,510.34399 348.53125,510.125 C 352.64262,509.61636 354.69027,505.03277 353.96875,501.1875 C 353.96875,471 353.96875,440.8125 353.96875,410.625 C 358.6004,407.4107 364.81318,406.2708 369.5625,403.15625 C 364.74279,400.69669 358.74995,400.20859 354.01682,397.69055 C 353.34401,393.07439 355.69541,386.78585 351.375,383.46875 C 347.52212,380.87839 342.37597,382.70762 337.96875,382.15625 C 296.20882,382.17711 254.44507,382.11455 212.6875,382.1875 z"
         style="opacity:0.09090899;fill:#cbe300;fill-opacity:1;fill-rule:evenodd;stroke:none;stroke-width:0.95908546;stroke-linecap:round;stroke-linejoin:round;stroke-miterlimit:4;stroke-opacity:1" />
      <path
         style="opacity:0.09090899;fill:#cbe300;fill-opacity:1;fill-rule:evenodd;stroke:none;stroke-width:0.95908546;stroke-linecap:round;stroke-linejoin:round;stroke-miterlimit:4;stroke-opacity:1"
         d="M 213.02099,381.66646 L 347.48748,381.66646 C 351.34905,381.66646 354.45781,384.78851 354.45781,388.66657 L 354.45781,397.61142 C 375.48501,404.69487 375.11986,401.02814 354.45781,410.61162 L 354.45781,503.70727 C 354.45781,507.58533 351.34905,510.70738 347.48748,510.70738 L 213.02099,510.70738 C 209.15943,510.70738 206.05066,507.58533 206.05066,503.70727 L 206.05066,388.66657 C 206.05066,384.78851 209.15943,381.66646 213.02099,381.66646 z"
         id="path2425"
         sodipodi:nodetypes="ccccccccccc"
         inkscape:export-filename="/home/jcosta/Work/iknow/iflow-4/workspace/iFlow/src/main/webapp/images/tutbalao.png"
         inkscape:export-xdpi="90"
         inkscape:export-ydpi="90" />
      <path
         id="path2427"
         d="M 212.65625,381.1875 C 207.65762,381.24367 204.63964,386.55392 205.5625,391.15625 C 205.60443,429.06158 205.47881,466.9742 205.625,504.875 C 206.23724,509.48792 211.16135,512.01516 215.53125,511.21875 C 259.90487,511.1561 304.28953,511.34395 348.65625,511.125 C 353.28175,510.52387 355.74833,505.54801 354.96875,501.21875 C 354.96875,471.125 354.96875,441.03125 354.96875,410.9375 C 359.90477,408.33578 365.73948,406.934 370.375,403.75 C 371.1668,401.48006 367.23599,401.37607 365.89626,400.66826 C 362.24023,399.58325 358.59971,398.44726 354.96875,397.28125 C 354.57615,392.34411 356.5892,385.63584 351.625,382.40625 C 347.24064,379.90352 341.81414,381.7019 337,381.15625 C 295.55257,381.17711 254.10132,381.11455 212.65625,381.1875 z"
         style="opacity:0.09090899;fill:#cbe300;fill-opacity:1;fill-rule:evenodd;stroke:none;stroke-width:0.95908546;stroke-linecap:round;stroke-linejoin:round;stroke-miterlimit:4;stroke-opacity:1" />
      <path
         id="path2429"
         d="M 212.65625,380.6875 C 206.18669,380.75794 203.77746,388.26504 205.0625,393.65625 C 205.23594,431.01142 204.72005,468.43838 205.3125,505.75 C 207.1156,513.15707 216.3131,511.94286 222.03125,511.71875 C 264.50303,511.54795 307.03216,512.05764 349.46875,511.46875 C 356.90655,509.65573 355.70586,500.45768 355.46875,494.71875 C 355.46875,466.90625 355.46875,439.09375 355.46875,411.28125 C 360.29749,408.21558 367.13316,407.64341 371.03125,403.5 C 370.12971,399.4988 363.67902,400.35216 360.6717,398.54172 C 354.18442,398.60864 355.33381,393.16112 355.4375,388.3125 C 355.38177,381.82948 347.91488,379.39602 342.5,380.65625 C 299.21934,380.67715 255.93402,380.61449 212.65625,380.6875 z"
         style="opacity:0.09090899;fill:#cbe300;fill-opacity:1;fill-rule:evenodd;stroke:none;stroke-width:0.95908546;stroke-linecap:round;stroke-linejoin:round;stroke-miterlimit:4;stroke-opacity:1" />
      <path
         id="path2431"
         d="M 212.65625,380.1875 C 205.92932,380.24488 203.21659,387.98015 204.5625,393.65625 C 204.75812,431.06277 204.17658,468.54644 204.84375,505.90625 C 206.69127,513.52993 216.08522,512.53909 222.03125,512.21875 C 264.55442,512.02623 307.14016,512.60051 349.625,511.9375 C 356.80427,510.2558 356.52106,501.46188 355.96875,495.71875 C 355.96875,467.66667 355.96875,439.61458 355.96875,411.5625 C 360.78423,408.60544 367.7727,408.06727 371.53125,403.65625 C 371.09141,399.01654 363.89008,400.01979 360.8271,398.07566 C 354.51426,398.12655 356.00758,392.49542 355.9375,387.9375 C 355.5515,381.36481 348.09772,378.92663 342.5,380.15625 C 299.21941,380.17715 255.93359,380.1145 212.65625,380.1875 z"
         style="opacity:0.09090899;fill:#cbe300;fill-opacity:1;fill-rule:evenodd;stroke:none;stroke-width:0.95908546;stroke-linecap:round;stroke-linejoin:round;stroke-miterlimit:4;stroke-opacity:1" />
      <path
         id="path2433"
         d="M 212.65625,379.6875 C 205.65794,379.76967 202.66167,387.67505 204.0625,393.65625 C 204.25967,431.09433 203.67448,468.60658 204.34375,506 C 205.89085,512.85165 214.26364,513.57098 220.03125,512.71875 C 263.26274,512.5252 306.55645,513.10188 349.75,512.4375 C 357.16901,510.64945 357.10217,501.72651 356.46875,495.71875 C 356.46875,467.78125 356.46875,439.84375 356.46875,411.90625 C 361.28393,408.85185 368.44785,408.49757 372,403.78125 C 371.91631,398.69397 364.28123,399.52843 360.95295,397.60422 C 354.87903,397.72414 356.61597,392.15736 356.4375,387.9375 C 356.0721,381.12961 348.37471,378.33027 342.5,379.65625 C 299.2195,379.67715 255.93304,379.6145 212.65625,379.6875 z"
         style="opacity:0.09090899;fill:#cbe300;fill-opacity:1;fill-rule:evenodd;stroke:none;stroke-width:0.95908546;stroke-linecap:round;stroke-linejoin:round;stroke-miterlimit:4;stroke-opacity:1" />
      <path
         id="path2435"
         d="M 212.4375,379.1875 C 205.28402,379.4118 202.13535,387.4724 203.5625,393.65625 C 203.78054,431.15497 203.13275,468.74228 203.875,506.1875 C 205.64452,513.75078 214.82951,513.94243 221.03125,513.21875 C 263.969,513.00442 306.98522,513.64348 349.875,512.90625 C 357.53587,511.12882 357.68776,501.95151 356.96875,495.71875 C 356.96875,467.88542 356.96875,440.05208 356.96875,412.21875 C 361.79661,409.08109 369.23459,408.89579 372.5,403.875 C 372.64107,398.35979 364.57999,399.00245 361.1092,397.13547 C 355.01858,397.33676 357.36841,391.49353 356.90625,387.5 C 356.19252,380.15472 347.71451,377.83013 341.5,379.15625 C 298.47961,379.17717 255.45572,379.11446 212.4375,379.1875 z"
         style="opacity:0.09090899;fill:#cbe300;fill-opacity:1;fill-rule:evenodd;stroke:none;stroke-width:0.95908546;stroke-linecap:round;stroke-linejoin:round;stroke-miterlimit:4;stroke-opacity:1" />
    </g>
    <path
       style="fill:#000000;fill-opacity:1;fill-rule:evenodd;stroke:none;stroke-width:0.95908546;stroke-linecap:round;stroke-linejoin:round;stroke-miterlimit:4;stroke-opacity:1"
       d="M 182.02099,75.34297 L 316.48748,75.34297 C 320.34905,75.34297 323.45781,77.278517 323.45781,79.682754 L 323.45781,85.228186 C 344.48501,89.619629 344.11986,87.346407 323.45781,93.287766 L 323.45781,151.00319 C 323.45781,153.40742 320.34905,155.34297 316.48748,155.34297 L 182.02099,155.34297 C 178.15943,155.34297 175.05066,153.40742 175.05066,151.00319 L 175.05066,79.682754 C 175.05066,77.278517 178.15943,75.34297 182.02099,75.34297 z"
       id="path3250"
       sodipodi:nodetypes="ccccccccccc"
       inkscape:export-filename="/home/jcosta/Work/iknow/iflow-4/workspace/iFlow/src/main/webapp/images/tutbalao.png"
       inkscape:export-xdpi="90"
       inkscape:export-ydpi="90" />
    <g
       id="g3276">
      <path
         style="opacity:0.1;fill:#000000;fill-opacity:1;fill-rule:evenodd;stroke:none;stroke-width:0.95908546;stroke-linecap:round;stroke-linejoin:round;stroke-miterlimit:4;stroke-opacity:1"
         d="M 181.53125,77.875 C 178.17319,77.631267 176.26475,80.436747 177.5625,83.6875 C 177.67024,106.21606 177.34938,128.92621 177.71875,151.34375 C 183.30831,154.83599 190.85798,151.85351 197.125,152.84375 C 237.61636,152.65026 278.17423,153.22682 318.625,152.5625 C 323.80891,151.45466 319.66985,144.36608 320.96875,140.875 C 321.23582,124.73219 320.43665,108.36937 321.36458,92.362926 C 326.1555,88.837684 332.92025,89.135173 322.96875,87.65625 C 318.38412,85.931095 324.11795,77.764135 317.6875,77.9375 C 272.31129,77.739024 226.91261,77.864939 181.53125,77.875 z"
         id="path3278" />
      <path
         style="opacity:0.1;fill:#000000;fill-opacity:1;fill-rule:evenodd;stroke:none;stroke-width:0.95908546;stroke-linecap:round;stroke-linejoin:round;stroke-miterlimit:4;stroke-opacity:1"
         d="M 181.5,77.3125 C 177.86018,77.061667 175.53772,80.171197 177,83.75 C 177.17864,106.36137 176.65061,129.22656 177.25,151.6875 C 182.89067,155.51983 190.69069,152.38861 197.125,153.40625 C 237.50518,153.27796 277.92588,153.66067 318.28125,153.21875 C 324.37046,152.40529 320.46661,144.63038 321.53125,140.71875 C 321.80785,124.6319 320.98103,108.30975 321.93919,92.368241 C 323.45976,89.882178 336.20753,89.416377 328.98744,88.307586 C 323.41674,88.483778 319.8501,85.318975 321.5,79.5625 C 317.82571,75.04864 310.42447,78.287541 305.40625,77.28125 C 264.10449,77.302212 222.80023,77.239411 181.5,77.3125 z"
         id="path3282" />
      <path
         style="opacity:0.1;fill:#000000;fill-opacity:1;fill-rule:evenodd;stroke:none;stroke-width:0.95908546;stroke-linecap:round;stroke-linejoin:round;stroke-miterlimit:4;stroke-opacity:1"
         d="M 181.4375,76.75 C 177.70145,76.565958 174.86886,79.833948 176.4375,83.6875 C 176.64115,106.37868 176.04084,129.27079 176.71875,151.84375 C 181.80248,156.34862 189.88837,152.856 196.09375,153.96875 C 237.02143,153.75253 278.02408,154.39605 318.90625,153.65625 C 325.12796,152.22621 320.87653,144.0854 322.09375,139.8125 C 322.43146,123.97474 321.4211,107.84346 322.59375,92.1875 C 325.3448,90.550797 339.42783,89.025069 330.72294,88.085108 C 325.58456,87.687903 319.82512,86.500486 322.09375,79.875 C 320.5358,74.978938 313.12497,77.297958 309.4375,76.71875 C 266.77112,76.73971 224.10251,76.676915 181.4375,76.75 z"
         id="path3286" />
      <path
         style="opacity:0.1;fill:#000000;fill-opacity:1;fill-rule:evenodd;stroke:none;stroke-width:0.95908546;stroke-linecap:round;stroke-linejoin:round;stroke-miterlimit:4;stroke-opacity:1"
         d="M 181.375,76.21875 C 177.76579,76.020742 174.40204,79.11533 175.90625,83.020833 C 176.08007,105.97193 175.56331,129.08379 176.15625,151.9375 C 180.08583,156.69302 187.55275,153.58306 192.89583,154.5 C 234.72807,154.39385 276.67726,154.71101 318.4375,154.34375 C 322.29853,154.05181 323.62077,150.23628 322.625,146.83333 C 322.625,128.98264 322.625,111.13194 322.625,93.28125 C 326.32299,90.630744 333.50454,90.306972 336.75,88.65625 C 332.15156,87.320748 326.61096,87.635989 322.625,85.21875 C 322.94511,81.87806 323.45675,77.022411 318.96875,76.46875 C 287.41902,75.803881 255.61492,76.381378 223.96876,76.1875 C 209.77114,76.20921 195.57136,76.144653 181.375,76.21875 z"
         id="path3290" />
      <path
         style="opacity:0.1;fill:#000000;fill-opacity:1;fill-rule:evenodd;stroke:none;stroke-width:0.95908546;stroke-linecap:round;stroke-linejoin:round;stroke-miterlimit:4;stroke-opacity:1"
         d="M 181.34375,75.65625 C 178.96182,75.834157 175.79947,76.76916 175.34375,79.5 C 175.38555,103.53993 175.26023,127.59369 175.40625,151.625 C 176.67884,154.83986 180.67935,155.18001 183.69792,155.0625 C 228.1942,155.04166 272.69246,155.10418 317.1875,155.03125 C 319.66569,154.90463 323.19379,153.68426 323.1875,150.69097 C 323.1875,131.5544 323.1875,112.41782 323.1875,93.28125 C 325.35902,92.16505 328.07656,91.858772 330.45615,91.054392 C 333.15899,90.207183 336.32396,89.791269 338.75,88.625 C 333.78151,87.325156 328.48254,86.657843 323.40625,85.5 C 322.6784,83.287706 323.78579,80.555748 322.8125,78.34375 C 320.22226,74.783656 315.34285,75.765244 311.5,75.625 C 268.11483,75.645844 224.72773,75.583319 181.34375,75.65625 z"
         id="path3294" />
      <path
         style="opacity:0.1;fill:#000000;fill-opacity:1;fill-rule:evenodd;stroke:none;stroke-width:0.95908546;stroke-linecap:round;stroke-linejoin:round;stroke-miterlimit:4;stroke-opacity:1"
         d="M 181.3125,75.09375 C 178.44415,75.197939 174.52203,76.805339 174.78125,80.243056 C 174.82305,104.0668 174.69774,127.90241 174.84375,151.71875 C 176.15799,155.34331 180.62965,155.80666 183.9757,155.625 C 228.38981,155.60416 272.80582,155.66668 317.21875,155.59375 C 320.19498,155.50149 324.1847,153.71179 323.75,150.16667 C 323.75,131.27778 323.75,112.38889 323.75,93.5 C 328.79055,91.97173 334.00862,90.940915 338.96875,89.21875 C 340.14103,88.296908 338.10614,87.763492 337.38603,87.654411 C 332.84988,86.715615 328.27578,85.962712 323.75,84.96875 C 323.43259,82.270872 324.72499,78.824734 322.2567,76.851822 C 318.52978,74.062375 313.59509,75.365694 309.27777,75.0625 C 266.62292,75.083344 223.96622,75.020819 181.3125,75.09375 z"
         id="path3298" />
      <path
         style="opacity:0.1;fill:#000000;fill-opacity:1;fill-rule:evenodd;stroke:none;stroke-width:0.95908546;stroke-linecap:round;stroke-linejoin:round;stroke-miterlimit:4;stroke-opacity:1"
         d="M 181.28125,74.53125 C 176.77568,74.389069 172.71293,78.32304 174.21875,83.020834 C 174.41618,106.1448 173.83037,129.38096 174.5,152.4375 C 178.58986,158.69116 187.53459,155.30306 193.69792,156.1875 C 235.37586,156.03871 277.10125,156.48315 318.75,155.96875 C 323.32081,155.56289 325.46475,150.99766 324.3125,146.83333 C 324.3125,129.19097 324.3125,111.54861 324.3125,93.90625 C 329.29744,91.967154 335.42043,91.958924 339.84375,89.0625 C 339.4661,85.958734 334.24223,87.22062 332.09781,86.078279 C 327.49487,85.489722 322.44301,85.194481 324.28125,79.25 C 322.20935,72.659261 313.32286,74.876285 308.16667,74.5 C 265.87176,74.520948 223.57501,74.45818 181.28125,74.53125 z"
         id="path3302" />
      <path
         style="opacity:0.1;fill:#000000;fill-opacity:1;fill-rule:evenodd;stroke:none;stroke-width:0.95908546;stroke-linecap:round;stroke-linejoin:round;stroke-miterlimit:4;stroke-opacity:1"
         d="M 181.25,74 C 176.09378,73.777847 171.99081,78.539205 173.6875,83.6875 C 173.93791,106.67692 173.20049,129.81812 174.03125,152.71875 C 178.51887,159.54956 188.31911,155.68037 195.03125,156.71875 C 236.30757,156.56893 277.622,157.01579 318.875,156.5 C 324.15873,156.04643 326.05403,150.59484 324.84375,146 C 324.84375,128.78125 324.84375,111.5625 324.84375,94.34375 C 329.77401,92.264562 336.11903,92.581969 340.34375,89.3125 C 340.24574,85.000379 333.32925,86.678463 330.59375,85.21875 C 325.25537,85.532344 324.46966,82.704602 324.59375,78.21875 C 320.31543,71.059572 310.22531,75.012093 303.5,73.96875 C 262.75024,73.98973 221.99862,73.926886 181.25,74 z"
         id="path3306" />
      <path
         style="opacity:0.1;fill:#000000;fill-opacity:1;fill-rule:evenodd;stroke:none;stroke-width:0.95908546;stroke-linecap:round;stroke-linejoin:round;stroke-miterlimit:4;stroke-opacity:1"
         d="M 181.21875,73.4375 C 175.80046,73.238561 171.39928,78.259584 173.125,83.6875 C 173.32693,106.66241 172.73053,129.74521 173.40625,152.65625 C 177.63788,160.21367 188.11678,156.29234 195.03125,157.28125 C 236.3495,157.13138 277.70381,157.57836 319,157.0625 C 324.48189,156.49616 326.68713,150.87292 325.40625,146 C 325.40625,128.92708 325.40625,111.85417 325.40625,94.78125 C 330.2916,92.602202 336.82417,93.203883 340.84375,89.5625 C 341.36981,84.502977 333.6537,86.130447 330.6875,84.6875 C 325.24366,85.205781 325.3653,81.930901 325.03125,77.8125 C 320.2557,70.34136 309.73522,74.505832 302.5,73.40625 C 262.07316,73.427233 221.64446,73.364383 181.21875,73.4375 z"
         id="path3310" />
      <path
         style="opacity:0.1;fill:#000000;fill-opacity:1;fill-rule:evenodd;stroke:none;stroke-width:0.95908546;stroke-linecap:round;stroke-linejoin:round;stroke-miterlimit:4;stroke-opacity:1"
         d="M 181.21875,72.875 C 175.50204,72.673165 170.82845,77.959647 172.5625,83.6875 C 172.7866,106.73678 172.12452,129.88307 172.875,152.875 C 177.15766,160.75341 187.8998,156.92581 195.03125,157.84375 C 236.40063,157.67235 277.81345,158.18347 319.15625,157.59375 C 324.8724,156.99172 327.246,151.09565 325.96875,146 C 325.96875,129.0625 325.96875,112.125 325.96875,95.1875 C 330.8191,92.988849 337.54964,93.659002 341.34375,89.8125 C 342.35862,84.174018 334.08285,85.46368 330.8125,84.125 C 325.98045,84.542093 325.93814,81.658654 325.65625,77.90625 C 321.47291,69.917232 310.63584,73.756283 303.5,72.84375 C 262.73982,72.864731 221.97779,72.801886 181.21875,72.875 z"
         id="path3314" />
    </g>
    <path
       style="fill:#000000;fill-opacity:1;fill-rule:evenodd;stroke:#000000;stroke-width:1.9561615;stroke-linecap:round;stroke-linejoin:round;stroke-miterlimit:4;stroke-dasharray:none;stroke-opacity:1"
       d="M 467.5017,271.08512 C 467.5017,296.84448 429.23574,317.75059 382.08661,317.75059 C 334.93747,317.75059 296.6715,296.84448 296.6715,271.08512 C 296.6715,245.32576 334.93747,224.41962 382.08661,224.41962 C 405.10378,224.41962 420.9051,225.80849 437.11042,232.24756 C 454.34156,239.0942 468.52132,241.3801 475.95699,242.6785 C 490.84245,245.27772 493.95324,247.40134 484.97076,252.89926 C 467.17651,263.79058 467.5017,263.12957 467.5017,271.08512 z"
       id="path3390"
       sodipodi:nodetypes="cssssssc"
       inkscape:export-filename="/home/jcosta/Work/iknow/iflow-4/workspace/iFlow/src/main/webapp/images/tutbalao.png"
       inkscape:export-xdpi="90"
       inkscape:export-ydpi="90" />
    <g
       id="g3198"
       inkscape:export-filename="/home/jcosta/Work/iknow/iflow-4/workspace/iFlow/src/main/webapp/images/tutbalao.png"
       inkscape:export-xdpi="90"
       inkscape:export-ydpi="90"
       transform="matrix(0.9765006,0,0,0.9526311,6.8811891,15.196825)">
      <path
         style="opacity:0.1;fill:#000000;fill-opacity:1;fill-rule:evenodd;stroke:#000000;stroke-width:2.02817798;stroke-linecap:round;stroke-linejoin:round;stroke-miterlimit:4;stroke-dasharray:none;stroke-opacity:1"
         d="M 382,222.15625 C 355.85746,222.8411 327.52986,228.68648 308.39916,247.7819 C 298.76544,257.033 296.01162,272.9391 304.125,284 C 317.44961,302.72565 341.10285,310.11845 362.75,313.59375 C 393.43069,317.53619 426.99009,314.09542 452.84375,295.875 C 462.97743,288.75757 470.55322,277.15874 469.3125,264.40625 C 470.66271,255.52002 481.25408,252.92357 487.36623,247.97145 C 488.73832,246.91714 494.21298,244.50999 490.125,243.625 C 473.32549,239.61256 455.69851,237.28147 439.65625,230.15625 C 421.49244,222.5897 401.47987,222.05196 382,222.15625 z"
         id="path3200" />
      <path
         style="opacity:0.1;fill:#000000;fill-opacity:1;fill-rule:evenodd;stroke:#000000;stroke-width:2.02817798;stroke-linecap:round;stroke-linejoin:round;stroke-miterlimit:4;stroke-dasharray:none;stroke-opacity:1"
         d="M 382,221.59375 C 355.55914,222.29636 326.92195,228.2615 307.75,247.65625 C 298.05013,257.10869 295.51733,273.23553 303.71875,284.4375 C 317.24925,303.18713 340.833,310.66347 362.625,314.125 C 394.02295,318.19042 428.32069,314.49616 454.34375,295.46875 C 464.29043,288.20716 471.04996,276.41272 469.9375,263.875 C 471.88454,255.62525 481.77522,253.24101 487.65498,248.4522 C 489.12536,247.33042 495.12935,244.58315 490.96875,243.375 C 475.75195,239.22447 459.56316,237.66259 444.78125,231.5625 C 425.05363,222.52515 403.44581,221.27967 382,221.59375 z"
         id="path3204" />
      <path
         style="opacity:0.1;fill:#000000;fill-opacity:1;fill-rule:evenodd;stroke:#000000;stroke-width:2.02817798;stroke-linecap:round;stroke-linejoin:round;stroke-miterlimit:4;stroke-dasharray:none;stroke-opacity:1"
         d="M 382,221.03125 C 355.83336,221.66078 327.60612,227.70585 308.28125,246.25 C 298.33624,255.49339 294.5773,271.65896 302.4558,283.4177 C 314.84421,302.39668 338.14773,310.32085 359.45514,314.19565 C 390.95548,319.01353 425.35604,315.7012 452.21875,297.71875 C 463.08004,290.47763 471.72508,278.2103 470.40625,264.53125 C 471.86963,256.08182 482.1328,253.7426 487.93174,248.91376 C 489.30352,247.59353 493.83553,246.2101 493.03125,243.875 C 482.56171,239.05472 470.31668,239.40865 459.32201,235.65564 C 442.73658,231.00724 427.17886,222.6913 409.65625,221.96875 C 400.4662,221.12749 391.22455,220.95002 382,221.03125 z"
         id="path3208" />
      <path
         style="opacity:0.1;fill:#000000;fill-opacity:1;fill-rule:evenodd;stroke:#000000;stroke-width:2.02817798;stroke-linecap:round;stroke-linejoin:round;stroke-miterlimit:4;stroke-dasharray:none;stroke-opacity:1"
         d="M 381.96875,220.5 C 356.58366,221.00936 329.40938,226.90683 310,243.8125 C 299.75372,252.47703 293.83019,267.82909 300.28125,280.5 C 309.78506,299.20958 330.94282,308.05046 350.375,312.9375 C 381.9988,319.93972 416.74301,317.91984 445.65625,302.53125 C 458.85318,295.35513 471.93197,282.61596 470.875,266.32292 C 470.54492,257.82104 480.49251,255.10366 485.9854,250.79983 C 488.34556,248.65338 493.58839,247.47134 493.78125,243.90625 C 487.41299,239.47756 478.58586,239.98483 471.125,237.90625 C 455.54564,235.37273 441.34292,228.18942 426.28125,224.125 C 411.80949,220.63154 396.81095,220.47972 381.96875,220.5 z"
         id="path3212" />
      <path
         style="opacity:0.1;fill:#000000;fill-opacity:1;fill-rule:evenodd;stroke:#000000;stroke-width:2.02817798;stroke-linecap:round;stroke-linejoin:round;stroke-miterlimit:4;stroke-dasharray:none;stroke-opacity:1"
         d="M 381.96875,219.9375 C 362.38312,220.27716 342.60009,223.93743 325.07175,232.85415 C 314.17787,238.56083 303.79309,246.53831 299.04128,258.20235 C 295.44319,266.98209 296.90992,277.33565 302.20439,285.10434 C 307.46158,293.21556 315.58102,299.28982 324.03125,303.8125 C 340.95577,312.74332 360.12916,316.54282 379.16602,317.23378 C 400.41132,317.84503 422.08368,314.56926 441.34375,305.40625 C 450.94194,300.68175 460.20701,294.29114 466.15625,285.28125 C 470.09585,279.54799 471.82556,272.51773 471.4521,265.59761 C 471.2207,261.62852 474.38905,258.89479 477.4486,256.96903 C 482.3711,253.48563 487.72281,250.66459 492.51515,247.12252 C 493.70187,246.29228 495.4825,244.13655 493.625,242.9375 C 489.67707,240.41058 484.62419,240.0872 480.03895,239.01423 C 465.46663,236.68642 451.24103,232.66551 437.63919,226.97539 C 419.95484,220.33753 400.68897,219.83607 381.96875,219.9375 z"
         id="path3216" />
      <path
         style="opacity:0.1;fill:#000000;fill-opacity:1;fill-rule:evenodd;stroke:#000000;stroke-width:2.02817798;stroke-linecap:round;stroke-linejoin:round;stroke-miterlimit:4;stroke-dasharray:none;stroke-opacity:1"
         d="M 381.96875,219.375 C 360.72655,219.72476 339.09002,224.02206 320.54397,234.70693 C 310.54017,240.70234 301.04153,249.15431 297.61753,260.67704 C 294.65726,270.28632 297.68851,280.91106 303.9465,288.50357 C 311.91328,298.47468 323.43575,304.98391 335.25,309.46875 C 356.03945,317.28424 378.81684,319.26312 400.8535,316.99518 C 418.26709,315.08972 435.62913,310.31939 450.53125,300.90625 C 460.00022,294.74517 468.79893,286.03275 471.33707,274.63414 C 472.43115,270.78558 471.51228,266.72241 472.4375,262.875 C 474.13357,259.01831 478.49102,257.12294 481.81245,254.73299 C 485.85351,251.98936 490.55329,249.84639 494.0625,246.375 C 495.4698,245.1902 495.21092,242.92217 493.5625,242.1875 C 488.46619,239.51831 482.54841,239.05149 476.97626,237.8903 C 463.41384,235.53183 450.25184,231.65614 437.5625,226.375 C 419.85244,219.72055 400.65871,219.29763 381.96875,219.375 z"
         id="path3220" />
      <path
         style="opacity:0.1;fill:#000000;fill-opacity:1;fill-rule:evenodd;stroke:#000000;stroke-width:2.02817798;stroke-linecap:round;stroke-linejoin:round;stroke-miterlimit:4;stroke-dasharray:none;stroke-opacity:1"
         d="M 381.96875,218.8125 C 356.20168,219.42389 328.68563,225.24471 308.875,242.625 C 297.77702,251.87416 291.87712,268.57645 299.13799,281.94062 C 309.02133,300.59018 330.16164,309.54213 349.68243,314.48567 C 381.78586,321.69339 417.12889,319.62775 446.46875,303.96875 C 460.40514,296.50839 473.79141,282.88269 472.5625,265.875 C 472.52349,258.96841 480.93303,256.75178 485.44458,253.11667 C 488.64284,250.30473 495.69737,248.69669 495.4375,243.5 C 491.7298,238.65258 484.26983,239.34591 478.88994,237.67911 C 462.41795,235.3249 446.98951,229.37095 431.46875,223.75 C 415.40449,219.09572 398.59101,218.72877 381.96875,218.8125 z"
         id="path3224" />
      <path
         style="opacity:0.1;fill:#000000;fill-opacity:1;fill-rule:evenodd;stroke:#000000;stroke-width:2.02817798;stroke-linecap:round;stroke-linejoin:round;stroke-miterlimit:4;stroke-dasharray:none;stroke-opacity:1"
         d="M 381.9375,218.28125 C 355.07139,218.92898 326.16,225.10124 306.3125,244.34375 C 295.33086,254.48025 291.58235,272.24011 300.1875,285.03125 C 313.44686,305.20502 338.33476,313.49332 361.08247,317.27481 C 393.43879,321.68112 428.92524,317.95947 455.95625,298.43125 C 466.65512,290.64577 474.37353,278.00568 473.21875,264.40625 C 475.33324,257.78012 483.66974,255.93495 488.58374,251.81876 C 491.59459,249.90215 498.56764,246.30443 495.09375,242 C 485.65156,236.4313 473.86973,237.25781 463.59376,233.90816 C 445.53026,229.49605 428.88463,219.95843 409.9375,219.21875 C 400.63216,218.38415 391.2766,218.19538 381.9375,218.28125 z"
         id="path3228" />
      <path
         style="opacity:0.1;fill:#000000;fill-opacity:1;fill-rule:evenodd;stroke:#000000;stroke-width:2.02817798;stroke-linecap:round;stroke-linejoin:round;stroke-miterlimit:4;stroke-dasharray:none;stroke-opacity:1"
         d="M 381.9375,217.71875 C 354.46881,218.40294 324.74164,224.80912 304.875,245.03125 C 294.14322,255.64056 291.27004,273.57343 300.2402,286.16578 C 314.11341,306.20498 339.08767,314.33669 362.125,318 C 393.95141,322.10352 428.7416,318.35743 455.46875,299.46875 C 466.70368,291.59621 474.95129,278.56154 473.78125,264.46875 C 475.74441,258.388 483.53976,256.59354 488.01699,252.8175 C 491.49739,250.63613 499.44681,246.6433 495.53125,241.65625 C 486.42635,235.97285 474.73127,236.84031 464.71875,233.625 C 446.25064,229.27975 429.27884,219.43369 409.96875,218.65625 C 400.65299,217.82136 391.28706,217.63263 381.9375,217.71875 z"
         id="path3232" />
      <path
         style="opacity:0.1;fill:#000000;fill-opacity:1;fill-rule:evenodd;stroke:#000000;stroke-width:2.02817798;stroke-linecap:round;stroke-linejoin:round;stroke-miterlimit:4;stroke-dasharray:none;stroke-opacity:1"
         d="M 381.9375,217.15625 C 354.49037,217.84593 324.8259,224.23413 304.81532,244.29135 C 293.64965,255.05329 290.57171,273.52578 299.77145,286.47828 C 313.71605,306.63077 338.88273,314.9013 362.0625,318.53125 C 394.01473,322.71336 428.94429,318.86923 455.8125,299.90625 C 467.12107,291.98798 475.47603,278.81958 474.3125,264.6875 C 476.20125,258.79495 483.91351,257.01345 488.33249,253.2598 C 492.22615,251.02719 500.22402,246.51374 495.9375,241.25 C 486.72639,235.43383 475.01688,236.35257 464.84375,233.0625 C 446.57491,228.83763 429.91442,219.08896 410.84924,218.17657 C 401.24536,217.25906 391.58071,217.07458 381.9375,217.15625 z"
         id="path3236" />
    </g>
  </g>
</svg>
